<svg id="SvgjsSvg1000" xmlns="http://www.w3.org/2000/svg" version="1.1" xmlns:xlink="http://www.w3.org/1999/xlink" xmlns:svgjs="http://svgjs.com/svgjs" width="94" height="94" viewBox="0 0 94 94"><title>hotdog</title><desc>Created with Avocode.</desc><defs id="SvgjsDefs1001"></defs><path id="SvgjsPath1007" d="M764.564 722.215L761.033 717.582C761.038 717.574 761.041 717.566 761.046 717.559C761.195 717.312 761.3330000000001 717.0609999999999 761.4620000000001 716.8059999999999C761.4870000000001 716.756 761.5110000000001 716.7049999999999 761.5360000000001 716.655C761.653 716.414 761.763 716.17 761.8620000000001 715.923C761.888 715.859 761.9110000000001 715.794 761.9350000000001 715.729C762.009 715.5350000000001 762.0770000000001 715.339 762.1400000000001 715.142C762.171 715.046 762.2010000000001 714.951 762.2290000000002 714.855C762.2870000000001 714.655 762.3380000000002 714.452 762.3850000000001 714.249C762.4110000000001 714.1370000000001 762.4360000000001 714.025 762.4590000000001 713.913C762.5000000000001 713.7040000000001 762.5360000000001 713.495 762.566 713.285C762.5840000000001 713.163 762.597 713.0409999999999 762.61 712.919C762.626 712.771 762.639 712.624 762.649 712.476C762.661 712.304 762.669 712.131 762.673 711.959C762.677 711.809 762.678 711.66 762.676 711.51C762.6740000000001 711.393 762.673 711.275 762.667 711.158C762.657 710.941 762.64 710.725 762.618 710.509C762.6070000000001 710.402 762.594 710.295 762.58 710.188C762.5500000000001 709.96 762.5160000000001 709.733 762.4720000000001 709.507C762.4570000000001 709.43 762.4380000000001 709.353 762.4220000000001 709.276C762.3780000000002 709.0749999999999 762.3300000000002 708.8739999999999 762.2750000000001 708.675C762.2570000000001 708.608 762.2410000000001 708.54 762.2210000000001 708.473C762.1490000000001 708.2289999999999 762.0670000000001 707.986 761.9790000000002 707.746C761.9550000000002 707.682 761.9320000000001 707.617 761.9070000000002 707.554C761.8110000000001 707.307 761.7080000000002 707.063 761.5950000000001 706.823C761.5740000000002 706.779 761.5520000000001 706.737 761.5310000000002 706.694C761.4140000000002 706.453 761.2890000000002 706.2149999999999 761.1530000000001 705.981C761.1430000000001 705.963 761.1330000000002 705.944 761.1230000000002 705.926C760.9800000000001 705.682 760.8240000000002 705.4440000000001 760.6610000000002 705.2090000000001C760.6320000000002 705.166 760.6020000000002 705.123 760.5720000000001 705.081C760.4100000000001 704.8530000000001 760.2380000000002 704.63 760.0570000000001 704.413C760.0250000000001 704.374 759.9920000000001 704.337 759.9590000000002 704.298C759.7680000000001 704.074 759.5690000000002 703.854 759.3570000000002 703.642C759.1450000000002 703.4300000000001 758.9240000000002 703.2310000000001 758.7000000000002 703.0390000000001C758.6620000000001 703.0060000000001 758.6240000000001 702.9730000000001 758.5860000000001 702.9410000000001C758.3680000000002 702.7600000000001 758.1450000000001 702.5880000000002 757.9180000000001 702.4260000000002C757.8760000000001 702.3960000000002 757.8330000000001 702.3660000000002 757.7900000000001 702.3370000000001C757.5550000000001 702.1740000000001 757.3170000000001 702.0180000000001 757.0730000000001 701.8750000000001C757.0550000000001 701.8650000000001 757.0360000000001 701.8550000000001 757.0180000000001 701.8450000000001C756.7840000000001 701.7090000000002 756.5460000000002 701.5840000000002 756.3050000000002 701.4670000000001C756.2620000000002 701.4460000000001 756.2200000000001 701.4240000000001 756.1770000000001 701.4030000000001C755.9360000000001 701.2900000000001 755.6930000000001 701.1870000000001 755.4460000000001 701.0910000000001C755.3820000000002 701.0660000000001 755.3180000000001 701.0420000000001 755.2540000000001 701.0180000000001C755.0130000000001 700.9300000000002 754.7710000000002 700.8480000000002 754.5270000000002 700.7770000000002C754.4600000000002 700.7570000000002 754.3920000000002 700.7410000000002 754.3250000000002 700.7220000000002C754.1260000000002 700.6680000000002 753.9250000000002 700.6190000000003 753.7240000000002 700.5760000000002C753.6470000000002 700.5590000000002 753.5710000000001 700.5410000000003 753.4930000000002 700.5250000000002C753.2680000000001 700.4820000000002 753.0400000000002 700.4480000000002 752.8130000000002 700.4180000000002C752.7060000000002 700.4040000000002 752.5990000000002 700.3900000000002 752.4920000000002 700.3790000000002C752.2760000000002 700.3570000000002 752.0590000000002 700.3400000000003 751.8430000000002 700.3300000000003C751.7250000000001 700.3250000000003 751.6080000000002 700.3240000000003 751.4910000000002 700.3220000000002C751.3410000000002 700.3200000000003 751.1920000000002 700.3210000000003 751.0420000000003 700.3250000000003C750.8700000000002 700.3290000000003 750.6980000000002 700.3370000000002 750.5250000000002 700.3490000000003C750.3770000000002 700.3590000000003 750.2300000000002 700.3720000000003 750.0830000000002 700.3870000000003C749.9600000000002 700.4010000000003 749.8390000000002 700.4140000000003 749.7170000000002 700.4310000000003C749.5070000000002 700.4610000000002 749.2970000000003 700.4970000000003 749.0890000000002 700.5390000000002C748.9760000000001 700.5610000000003 748.8640000000001 700.5860000000002 748.7530000000002 700.6120000000002C748.5500000000002 700.6590000000002 748.3470000000002 700.7100000000002 748.1470000000002 700.7680000000001C748.0510000000002 700.7960000000002 747.9550000000002 700.8270000000001 747.8600000000001 700.8570000000002C747.6630000000001 700.9200000000002 747.4670000000001 700.9890000000001 747.2730000000001 701.0620000000002C747.2080000000001 701.0870000000002 747.1430000000001 701.1100000000002 747.0790000000002 701.1350000000002C746.8320000000002 701.2340000000003 746.5890000000002 701.3450000000003 746.3480000000002 701.4620000000002C746.2970000000001 701.4860000000002 746.2470000000002 701.5110000000002 746.1970000000002 701.5360000000002C745.9420000000002 701.6650000000002 745.6900000000003 701.8030000000002 745.4440000000002 701.9520000000002C745.4360000000001 701.9570000000002 745.4280000000002 701.9600000000003 745.4210000000002 701.9650000000003L740.7890000000002 698.4330000000002C736.0460000000002 694.8160000000003 729.2880000000002 695.2700000000002 725.0700000000002 699.4890000000003L678.4910000000002 746.0820000000002C674.2740000000002 750.3010000000003 673.8200000000002 757.0610000000003 677.4360000000003 761.8060000000003L680.9660000000002 766.4390000000003C680.9610000000002 766.4470000000003 680.9580000000002 766.4560000000004 680.9530000000002 766.4640000000003C680.8040000000002 766.7090000000003 680.6670000000003 766.9590000000003 680.5390000000002 767.2130000000003C680.5130000000003 767.2650000000003 680.4870000000002 767.3170000000003 680.4620000000002 767.3690000000003C680.3460000000002 767.6080000000003 680.2360000000002 767.8500000000003 680.1380000000003 768.0960000000002C680.1110000000002 768.1620000000003 680.0880000000003 768.2290000000003 680.0620000000002 768.2960000000003C679.9900000000002 768.4870000000003 679.9230000000002 768.6800000000003 679.8610000000002 768.8750000000002C679.8280000000002 768.9750000000003 679.7970000000003 769.0750000000003 679.7680000000003 769.1760000000003C679.7110000000002 769.3720000000003 679.6610000000003 769.5700000000003 679.6150000000002 769.7690000000002C679.5880000000002 769.8820000000003 679.5630000000002 769.9960000000002 679.5400000000002 770.1100000000002C679.4990000000001 770.3170000000002 679.4630000000002 770.5250000000002 679.4330000000002 770.7340000000003C679.4160000000002 770.8580000000003 679.4030000000002 770.9810000000002 679.3890000000002 771.1050000000002C679.3730000000003 771.2500000000002 679.3610000000002 771.3950000000002 679.3510000000002 771.5400000000002C679.3390000000003 771.7150000000001 679.3300000000003 771.8900000000002 679.3260000000002 772.0650000000002C679.3230000000002 772.2130000000002 679.3220000000002 772.3610000000002 679.3240000000003 772.5080000000002C679.3260000000002 772.6270000000002 679.3270000000003 772.7450000000001 679.3320000000003 772.8640000000001C679.3420000000003 773.0800000000002 679.3590000000004 773.2960000000002 679.3810000000003 773.5110000000002C679.3920000000003 773.6190000000001 679.4060000000003 773.7260000000002 679.4200000000003 773.8340000000002C679.4500000000003 774.0610000000001 679.4840000000003 774.2880000000001 679.5270000000003 774.5130000000001C679.5420000000003 774.5910000000001 679.5610000000003 774.6680000000001 679.5780000000003 774.7450000000001C679.6210000000003 774.9460000000001 679.6700000000003 775.1470000000002 679.7240000000003 775.3450000000001C679.7420000000003 775.4130000000001 679.7590000000002 775.4800000000001 679.7780000000002 775.5470000000001C679.8500000000003 775.7920000000001 679.9320000000002 776.0340000000001 680.0200000000002 776.2740000000001C680.0440000000002 776.3390000000002 680.0680000000002 776.4030000000001 680.0930000000002 776.4680000000001C680.1880000000002 776.714 680.2920000000001 776.9580000000001 680.4050000000002 777.1980000000001C680.4250000000002 777.2410000000001 680.4470000000002 777.2830000000001 680.4680000000002 777.3260000000001C680.5860000000002 777.5670000000001 680.7110000000002 777.8060000000002 680.8460000000002 778.0400000000002C680.8570000000002 778.0580000000002 680.8660000000002 778.0760000000001 680.8770000000002 778.0950000000001C681.0200000000002 778.3390000000002 681.1760000000002 778.5770000000001 681.3380000000002 778.8120000000001C681.3680000000002 778.8550000000001 681.3970000000002 778.8970000000002 681.4270000000002 778.9400000000002C681.5900000000003 779.1670000000001 681.7610000000002 779.3900000000002 681.9420000000002 779.6080000000002C681.9740000000003 779.6460000000002 682.0080000000003 779.6840000000002 682.0400000000002 779.7220000000002C682.2320000000002 779.9460000000003 682.4310000000002 780.1670000000003 682.6430000000001 780.3790000000002C682.8550000000001 780.5910000000002 683.0750000000002 780.7900000000002 683.2990000000001 780.9810000000002C683.3370000000001 781.0140000000002 683.3750000000001 781.0480000000002 683.4130000000001 781.0800000000003C683.6310000000001 781.2610000000003 683.8540000000002 781.4320000000002 684.0820000000001 781.5950000000003C684.1240000000001 781.6250000000002 684.1670000000001 781.6540000000002 684.2090000000001 781.6840000000003C684.4440000000001 781.8470000000003 684.682 782.0020000000003 684.926 782.1450000000003C684.9440000000001 782.1560000000003 684.9630000000001 782.1650000000003 684.981 782.1760000000003C685.215 782.3110000000003 685.453 782.4370000000002 685.694 782.5540000000003C685.737 782.5750000000003 685.78 782.5970000000003 685.823 782.6170000000003C686.063 782.7310000000003 686.307 782.8340000000003 686.553 782.9290000000003C686.617 782.9540000000003 686.682 782.9790000000003 686.746 783.0020000000003C686.986 783.0910000000003 687.228 783.1730000000003 687.473 783.2440000000003C687.54 783.2640000000002 687.607 783.2800000000002 687.675 783.2980000000002C687.8739999999999 783.3530000000002 688.074 783.4010000000002 688.275 783.4450000000003C688.352 783.4610000000002 688.429 783.4800000000002 688.507 783.4950000000002C688.732 783.5390000000002 688.959 783.5730000000002 689.1859999999999 783.6030000000002C689.2929999999999 783.6170000000002 689.401 783.6300000000002 689.5089999999999 783.6410000000002C689.7239999999999 783.6630000000002 689.9399999999999 783.6800000000002 690.1549999999999 783.6900000000002C690.2739999999999 783.6960000000001 690.3919999999998 783.6970000000001 690.5109999999999 783.6990000000002C690.6579999999999 783.7010000000001 690.8059999999998 783.7000000000002 690.9539999999998 783.6960000000001C691.1289999999998 783.6920000000001 691.3039999999999 783.6840000000002 691.4789999999998 783.6720000000001C691.6239999999998 783.6610000000002 691.7689999999998 783.6490000000001 691.9139999999998 783.6330000000002C692.0379999999998 783.6200000000001 692.1609999999997 783.6070000000002 692.2839999999998 783.5890000000002C692.4929999999997 783.5590000000002 692.7009999999998 783.5230000000001 692.9089999999998 783.4820000000002C693.0229999999998 783.4600000000002 693.1359999999997 783.4340000000002 693.2489999999998 783.4080000000002C693.4479999999998 783.3620000000002 693.6459999999998 783.3110000000003 693.8429999999998 783.2550000000002C693.9429999999999 783.2260000000002 694.0429999999999 783.1940000000002 694.1439999999999 783.1620000000003C694.3379999999999 783.1000000000003 694.5309999999998 783.0320000000003 694.7219999999999 782.9600000000003C694.7889999999999 782.9350000000003 694.8559999999999 782.9110000000003 694.9219999999999 782.8850000000002C695.1679999999999 782.7860000000002 695.41 782.6760000000003 695.6489999999999 782.5600000000002C695.7009999999999 782.5350000000002 695.7529999999999 782.5100000000002 695.8049999999998 782.4830000000002C696.0579999999999 782.3550000000001 696.3079999999999 782.2180000000002 696.5539999999999 782.0690000000002C696.5619999999999 782.0650000000002 696.5699999999998 782.0610000000001 696.5779999999999 782.0560000000002L701.2099999999998 785.5870000000001C705.9539999999998 789.2040000000001 712.7109999999998 788.7500000000001 716.9289999999999 784.5310000000001L763.5079999999998 737.9380000000001C767.7249999999998 733.7200000000001 768.1799999999998 726.9600000000002 764.5639999999999 722.2150000000001ZM695.657 778.517C695.561 778.595 695.4590000000001 778.663 695.36 778.7360000000001C695.237 778.8260000000001 695.115 778.9180000000001 694.988 779.0010000000001C694.8720000000001 779.0760000000001 694.7520000000001 779.142 694.633 779.2110000000001C694.537 779.2660000000001 694.4440000000001 779.3260000000001 694.3470000000001 779.3760000000001C693.8940000000001 779.613 693.4220000000001 779.8030000000001 692.94 779.9460000000001C692.9350000000001 779.9470000000001 692.931 779.9480000000001 692.926 779.9490000000002C692.6890000000001 780.0190000000002 692.45 780.0770000000002 692.2080000000001 780.1240000000001C692.1830000000001 780.1290000000001 692.1580000000001 780.1320000000002 692.1340000000001 780.1370000000002C691.9140000000001 780.1770000000001 691.6930000000001 780.2100000000002 691.4710000000001 780.2320000000002C691.4300000000001 780.2360000000002 691.3890000000001 780.2380000000002 691.3480000000001 780.2410000000002C691.143 780.2580000000003 690.9380000000001 780.2690000000002 690.7330000000001 780.2700000000002C690.677 780.2710000000002 690.623 780.2690000000002 690.5680000000001 780.2680000000003C690.378 780.2650000000002 690.1890000000001 780.2570000000003 690.0000000000001 780.2410000000002C689.9320000000001 780.2350000000002 689.8640000000001 780.2270000000002 689.7960000000002 780.2190000000002C689.6220000000002 780.2000000000002 689.4480000000002 780.1750000000002 689.2750000000002 780.1440000000001C689.1970000000002 780.1300000000001 689.1190000000003 780.1150000000001 689.0410000000002 780.0980000000001C688.8810000000002 780.065 688.7220000000002 780.0250000000001 688.5630000000002 779.9820000000001C688.4770000000002 779.9580000000001 688.3910000000002 779.9340000000001 688.3050000000002 779.907C688.1570000000002 779.861 688.0110000000002 779.8090000000001 687.8660000000002 779.754C687.7750000000002 779.719 687.6840000000002 779.686 687.5950000000003 779.648C687.4560000000002 779.59 687.3200000000003 779.524 687.1850000000003 779.458C687.0940000000003 779.413 687.0020000000003 779.37 686.9130000000002 779.322C686.7790000000002 779.25 686.6490000000002 779.17 686.5190000000002 779.09C686.4330000000002 779.037 686.3460000000002 778.9870000000001 686.2620000000003 778.931C686.1230000000003 778.8380000000001 685.9890000000003 778.735 685.8550000000002 778.6320000000001C685.7860000000003 778.5790000000001 685.7140000000003 778.5300000000001 685.6470000000003 778.475C685.4480000000003 778.311 685.2540000000002 778.138 685.0690000000003 777.952C684.8830000000003 777.767 684.7100000000003 777.573 684.5460000000003 777.374C684.4900000000002 777.306 684.4420000000002 777.234 684.3890000000002 777.1650000000001C684.2860000000003 777.0310000000001 684.1830000000002 776.897 684.0900000000003 776.758C684.0340000000002 776.6740000000001 683.9840000000003 776.587 683.9310000000003 776.5020000000001C683.8510000000002 776.3710000000001 683.7710000000003 776.2410000000001 683.6990000000003 776.1080000000001C683.6510000000003 776.018 683.6080000000003 775.926 683.5630000000003 775.836C683.4970000000003 775.7 683.4320000000004 775.564 683.3730000000003 775.4250000000001C683.3360000000002 775.336 683.3020000000002 775.2450000000001 683.2680000000003 775.1540000000001C683.2130000000003 775.0090000000001 683.1600000000003 774.863 683.1140000000003 774.7150000000001C683.0880000000003 774.6290000000001 683.0630000000002 774.5430000000001 683.0390000000002 774.4560000000001C682.9960000000002 774.2980000000001 682.9570000000002 774.1390000000001 682.9230000000002 773.9790000000002C682.9070000000003 773.9010000000002 682.8910000000002 773.8230000000002 682.8770000000002 773.7450000000001C682.8460000000002 773.5710000000001 682.8220000000002 773.3980000000001 682.8020000000001 773.2230000000001C682.7950000000002 773.1550000000001 682.7870000000001 773.0880000000001 682.7810000000002 773.0200000000001C682.7650000000002 772.8310000000001 682.7570000000002 772.6410000000001 682.7540000000001 772.4520000000001C682.7530000000002 772.3960000000001 682.7510000000001 772.3420000000001 682.7510000000001 772.2870000000001C682.753 772.0810000000001 682.763 771.8760000000002 682.7810000000001 771.6720000000001C682.7840000000001 771.6300000000001 682.7850000000001 771.5890000000002 682.7890000000001 771.5480000000001C682.8120000000001 771.3260000000001 682.844 771.1050000000001 682.8850000000001 770.8850000000001C682.8900000000001 770.8600000000001 682.892 770.8350000000002 682.897 770.8100000000001C682.9440000000001 770.5690000000001 683.0020000000001 770.3290000000001 683.072 770.0920000000001C683.073 770.0880000000001 683.074 770.0830000000001 683.075 770.0790000000001C683.2180000000001 769.5960000000001 683.409 769.1250000000001 683.6450000000001 768.671C683.6960000000001 768.5740000000001 683.7560000000001 768.481 683.8110000000001 768.3850000000001C683.8790000000001 768.2660000000001 683.9450000000002 768.1460000000001 684.0210000000002 768.0300000000001C684.1030000000002 767.9030000000001 684.1950000000002 767.7810000000001 684.2850000000002 767.6580000000001C684.3580000000002 767.5590000000001 684.4260000000002 767.4570000000001 684.5040000000002 767.3600000000001L684.5360000000003 767.3200000000002C684.7020000000003 767.1160000000002 684.8790000000002 766.9190000000002 685.0690000000003 766.7300000000001L745.7120000000003 706.0680000000001C745.9010000000003 705.8790000000001 746.0980000000003 705.7020000000001 746.3010000000004 705.5360000000001L746.3430000000004 705.503C746.4380000000004 705.426 746.5390000000004 705.359 746.6360000000004 705.287C746.7600000000004 705.196 746.8840000000005 705.1030000000001 747.0120000000004 705.02C747.1240000000004 704.947 747.2410000000004 704.883 747.3570000000004 704.816C747.4560000000005 704.759 747.5530000000005 704.696 747.6530000000005 704.644C748.1060000000004 704.408 748.5770000000005 704.218 749.0590000000004 704.075C749.0660000000004 704.0730000000001 749.0730000000004 704.072 749.0800000000004 704.0690000000001C749.3150000000004 704.0010000000001 749.5520000000004 703.9430000000001 749.7900000000004 703.8960000000001C749.8170000000005 703.8910000000001 749.8440000000004 703.888 749.8700000000005 703.883C750.0880000000004 703.8430000000001 750.3070000000005 703.811 750.5280000000005 703.789C750.5700000000005 703.784 750.6120000000004 703.783 750.6550000000004 703.779C750.8580000000004 703.762 751.0620000000005 703.752 751.2660000000004 703.75C751.3220000000005 703.75 751.3780000000004 703.752 751.4330000000004 703.753C751.6220000000004 703.7560000000001 751.8110000000005 703.764 751.9990000000005 703.7800000000001C752.0680000000004 703.7860000000001 752.1360000000004 703.7940000000001 752.2040000000005 703.801C752.3780000000005 703.821 752.5510000000005 703.846 752.7240000000005 703.8760000000001C752.8030000000005 703.8910000000001 752.8810000000005 703.9060000000001 752.9590000000005 703.9220000000001C753.1190000000005 703.9560000000001 753.2780000000005 703.9950000000001 753.4350000000005 704.0390000000001C753.5220000000005 704.0620000000001 753.6090000000005 704.0870000000001 753.6950000000005 704.1140000000001C753.8420000000006 704.1600000000002 753.9880000000005 704.2120000000001 754.1330000000005 704.2670000000002C754.2240000000005 704.3010000000002 754.3150000000005 704.3350000000002 754.4050000000005 704.3730000000002C754.5430000000006 704.4310000000002 754.6790000000005 704.4960000000002 754.8140000000005 704.5630000000002C754.9060000000005 704.6070000000002 754.9970000000005 704.6500000000002 755.0870000000006 704.6980000000002C755.2210000000006 704.7700000000002 755.3510000000006 704.8510000000002 755.4810000000006 704.9310000000002C755.5660000000006 704.9840000000002 755.6530000000006 705.0330000000001 755.7370000000005 705.0900000000001C755.8760000000005 705.1830000000001 756.0100000000006 705.2850000000002 756.1440000000006 705.3880000000001C756.2130000000005 705.4410000000001 756.2850000000005 705.4900000000001 756.3530000000005 705.5460000000002C756.5520000000005 705.7090000000002 756.7450000000006 705.8830000000002 756.9310000000005 706.0680000000002C757.1170000000005 706.2540000000002 757.2900000000005 706.4480000000002 757.4530000000005 706.6470000000002C757.5090000000006 706.7140000000002 757.5580000000006 706.7860000000002 757.6110000000006 706.8550000000001C757.7140000000005 706.9890000000001 757.8160000000006 707.1240000000001 757.9090000000006 707.2620000000002C757.9660000000006 707.3460000000001 758.0150000000006 707.4330000000002 758.0680000000006 707.5190000000001C758.1480000000006 707.6490000000001 758.2280000000005 707.7790000000001 758.3000000000005 707.9130000000001C758.3490000000005 708.0030000000002 758.3920000000005 708.0940000000002 758.4360000000005 708.1850000000002C758.5030000000005 708.3210000000001 758.5680000000004 708.4570000000002 758.6260000000005 708.5950000000001C758.6640000000006 708.6850000000002 758.6980000000005 708.7760000000002 758.7320000000005 708.8670000000002C758.7870000000005 709.0120000000002 758.8390000000005 709.1580000000002 758.8850000000006 709.3050000000002C758.9120000000006 709.3910000000002 758.9360000000006 709.4780000000002 758.9600000000006 709.5650000000002C759.0030000000006 709.7230000000002 759.0430000000006 709.8810000000002 759.0760000000006 710.0410000000002C759.0930000000006 710.1190000000001 759.1080000000006 710.1980000000002 759.1220000000006 710.2770000000002C759.1530000000006 710.4490000000002 759.1780000000007 710.6230000000002 759.1970000000007 710.7970000000001C759.2050000000007 710.8650000000001 759.2130000000006 710.9330000000001 759.2190000000007 711.0010000000001C759.2350000000007 711.19 759.2430000000007 711.3790000000001 759.2450000000007 711.5680000000001C759.2460000000007 711.623 759.2490000000007 711.6790000000001 759.2480000000007 711.7350000000001C759.2470000000008 711.9390000000001 759.2360000000008 712.1430000000001 759.2190000000007 712.3470000000001C759.2160000000007 712.3890000000001 759.2140000000007 712.431 759.2100000000007 712.4730000000001C759.1880000000007 712.6940000000001 759.1550000000008 712.9130000000001 759.1150000000007 713.1310000000001C759.1100000000007 713.1580000000001 759.1070000000007 713.1850000000001 759.1020000000007 713.2110000000001C759.0560000000006 713.4500000000002 758.9980000000006 713.6870000000001 758.9290000000007 713.9210000000002C758.9270000000007 713.9280000000001 758.9260000000006 713.9360000000001 758.9240000000007 713.9430000000002C758.7810000000006 714.4250000000002 758.5910000000007 714.8960000000002 758.3550000000007 715.3490000000002C758.3020000000007 715.4490000000002 758.2400000000007 715.5470000000001 758.1830000000007 715.6450000000002C758.1160000000007 715.7610000000002 758.0520000000007 715.8780000000002 757.9790000000007 715.9900000000002C757.8960000000008 716.1180000000003 757.8030000000007 716.2420000000002 757.7120000000007 716.3660000000002C757.6400000000007 716.4640000000002 757.5730000000007 716.5640000000002 757.4970000000006 716.6590000000002L757.4630000000006 716.7020000000002C757.2970000000006 716.9050000000002 757.1200000000007 717.1010000000002 756.9310000000006 717.2910000000003L696.2870000000006 777.9520000000002C696.0980000000006 778.1420000000003 695.9010000000006 778.3190000000002 695.6980000000005 778.4850000000002ZM680.917 748.509L727.496 701.916C730.505 698.9060000000001 735.326 698.5820000000001 738.71 701.162L742.7130000000001 704.215L683.2160000000001 763.73L680.1640000000001 759.726C677.5850000000002 756.341 677.9080000000001 751.519 680.9170000000001 748.509ZM714.503 782.105C711.494 785.115 706.6740000000001 785.438 703.2900000000001 782.8580000000001L699.2860000000001 779.806L758.7840000000001 720.2900000000001L761.8360000000001 724.2950000000001H761.8350000000002C764.4150000000002 727.6800000000001 764.0910000000001 732.5020000000001 761.0820000000001 735.5120000000001ZM743.072 723.277C745.705 720.642 746.484 717.4630000000001 746.531 717.263C746.6129999999999 716.909 746.394 716.5540000000001 746.04 716.472C745.6859999999999 716.389 745.332 716.6089999999999 745.2489999999999 716.963C745.2339999999999 717.029 743.6209999999999 723.6179999999999 737.0619999999999 725.153C729.7219999999999 726.87 727.829 734.15 727.7579999999999 734.434C727.7399999999999 734.497 725.8559999999999 740.751 720.1289999999999 742.0899999999999C713.7739999999999 743.5769999999999 711.637 750.199 711.4849999999999 750.6959999999999C711.3679999999999 751.0139999999999 708.9869999999999 757.2799999999999 703.7119999999999 758.5129999999999C697.5989999999998 759.9429999999999 695.5629999999999 766.4419999999999 695.4799999999999 766.7169999999999C695.3739999999999 767.0649999999998 695.5699999999999 767.4319999999999 695.9179999999999 767.5369999999999C696.2649999999999 767.6429999999999 696.6329999999999 767.4479999999999 696.7379999999999 767.0999999999999C696.757 767.04 698.6469999999999 761.0489999999999 704.011 759.795C710.1039999999999 758.3689999999999 712.625 751.418 712.7389999999999 751.092C712.7589999999999 751.028 714.7189999999999 744.708 720.429 743.372C726.895 741.8589999999999 728.938 735.0899999999999 729.028 734.7769999999999C729.0450000000001 734.709 730.794 727.9709999999999 737.362 726.434C739.862 725.8489999999999 741.713 724.636 743.072 723.2769999999999Z " fill="#969696" fill-opacity="1" transform="matrix(1,0,0,1,-674,-695)"></path></svg>